<?xml version="1.0" encoding="UTF-8"?>
<svg width="500px" height="500px" viewBox="0 0 500 500" version="1.1" xmlns="http://www.w3.org/2000/svg" xmlns:xlink="http://www.w3.org/1999/xlink">
    <!-- Generator: sketchtool 52.5 (67469) - http://www.bohemiancoding.com/sketch -->
    <title>DDB2EF48-CC13-49B3-AB6E-20CDDB12B284</title>
    <desc>Created with sketchtool.</desc>
    <g id="Frontbyte.com" stroke="none" stroke-width="1" fill="none" fill-rule="evenodd">
        <g id="Favicon">
            <g id="favicon">
                <path d="M250.005463,2.28610533e-14 C111.918446,2.28610533e-14 -7.44525969e-14,111.923337 -7.44525969e-14,250.01639 C-7.44525969e-14,388.098516 111.918446,500 250.005463,500 C388.09248,500 500,388.098516 500,250.01639 C500,111.923337 388.09248,2.28610533e-14 250.005463,2.28610533e-14" id="Fill-19" fill="#2D2D41"></path>
                <polygon id="Fill-21" fill="#63C9E0" points="186.229348 142.698913 228.816304 142.698913 250.098913 179.579348 228.816304 216.492391 186.229348 216.492391 164.892391 179.579348"></polygon>
                <polygon id="Fill-23" fill="#63C9E0" points="228.81087 400.75 186.223913 400.75 164.886957 363.847826 186.223913 326.934783 228.81087 326.934783 250.093478 363.847826"></polygon>
                <polygon id="Fill-25" fill="#63C9E0" points="228.81087 308.577174 186.223913 308.577174 164.886957 271.68587 186.223913 234.772826 228.81087 234.772826 250.093478 271.68587"></polygon>
                <polygon id="Fill-27" fill="#63C9E0" points="311.21413 262.556522 268.594565 262.556522 247.290217 225.676087 268.594565 188.85 311.21413 188.85 332.518478 225.676087"></polygon>
                <polygon id="Fill-29" fill="#63C9E0" points="311.21413 170.451087 268.594565 170.451087 247.290217 133.559783 268.594565 96.6576087 311.21413 96.6576087 332.518478 133.559783"></polygon>
            </g>
        </g>
    </g>
</svg>